<svg id="ae228eb6-1e48-4042-a7d5-063f444bf58d" data-name="Слой 1" xmlns="http://www.w3.org/2000/svg" viewBox="0 0 476.23 436.02"><defs><style>.b1f2cfe8-c8ab-4123-86cb-346c6b12a6ad{fill:#cbd5e1;}.a5d98763-6718-4073-975e-b97101132954{fill:#fff;}.b3ba1424-9e0d-4ce2-a190-ba10628fd4e4{isolation:isolate;}</style></defs><circle class="b1f2cfe8-c8ab-4123-86cb-346c6b12a6ad" cx="255.66" cy="189" r="71.14"/><path class="b1f2cfe8-c8ab-4123-86cb-346c6b12a6ad" d="M501.29,486.36a43,43,0,0,1,.58-29.24A41.76,41.76,0,0,1,520.11,436c16.26-9.39,37-8.8,54.53-3.82,22.37,6.34,42.28,18.94,64.07,26.81,18,6.5,38.85,9.48,57.26,2.78,8.95-3.27,17.18-8.92,22.62-16.83,5.67-8.25,7.34-18.57,2.86-27.73-4.17-8.54-12.44-14.76-21-18.53-10.66-4.71-22.25-6.65-33-11-9.68-3.89-18.92-10.29-23.93-19.67-4.9-9.17-5.09-21,1.71-29.27s17.33-11.54,27.51-12.19a125.34,125.34,0,0,1,18.68.57c6.36.54,12.73,1.11,19.09,1.67l38.39,3.37c9.58.84,19.23,1.53,28.8.17,8.63-1.24,17.28-4.45,23.21-11.09,6.78-7.58,8.6-17.8,8.4-27.67a142,142,0,0,0-1.36-15.26c-.24-1.88-3.25-1.91-3,0,1.32,10.11,2.63,20.92-.55,30.83-2.93,9.16-10.11,15.54-19.15,18.43-8.82,2.82-18.34,2.84-27.49,2.29-12.11-.72-24.2-2-36.28-3.1-12.63-1.11-25.29-2.56-38-3.21-11-.56-22.5.3-32.17,6.1-8.56,5.14-14.27,13.71-14.43,23.85-.16,10.5,5.13,20.21,12.89,27,8.35,7.34,18.72,11.1,29.23,14.17s21.21,5.72,30,12.42c7.66,5.86,13.52,14.81,11.83,24.81s-9.39,18.35-18,23.35c-16.81,9.74-38.1,8.49-56.12,3.17-22.14-6.52-41.88-19.1-63.6-26.74-17.85-6.28-38.25-8.81-56.38-2.09a47.71,47.71,0,0,0-21.87,15.93A45.72,45.72,0,0,0,496,473a44,44,0,0,0,2.41,14.16c.63,1.82,3.53,1,2.89-.79Z" transform="translate(-427.34 -195.5)"/><circle class="b1f2cfe8-c8ab-4123-86cb-346c6b12a6ad" cx="68.66" cy="334.5" r="47"/><circle class="a5d98763-6718-4073-975e-b97101132954" cx="255.66" cy="189" r="66.43"/><path class="b1f2cfe8-c8ab-4123-86cb-346c6b12a6ad" d="M689.65,418.32c-4.11-4.47-4.78-11.43-2.39-16.75l3.15-2.73,10.83,10a60.16,60.16,0,0,0,7.44-9.68c.49-.8,1-1.61,1.42-2.43l0,0a58.57,58.57,0,0,0,5.47-13.81c.11-.42.21-.84.31-1.26A59,59,0,0,0,717.43,370c0-.61,0-1.22,0-1.84v-.95c0-1.65-.13-3.29-.29-4.93a59.75,59.75,0,0,0-2.24-11.34c0-.08,0-.16-.07-.23l-1.16-.27A59.22,59.22,0,0,0,703.18,349c-1.64-.08-3.29-.08-4.94,0-.72,0-1.45.08-2.17.13l-1.88.17A59.53,59.53,0,0,0,684,351.37l-1.25.37A59.16,59.16,0,0,0,669.22,358l0,0a58.6,58.6,0,0,0-11.6,9.52l10.84,10.25c-1,1-1.92,2.13-2.79,3.24a13.6,13.6,0,0,1-2.51,1.16,15,15,0,0,1-14.43-2.57l-1.93-1.9a14.92,14.92,0,0,1,.55-19.89l-10.84-10.25a29.09,29.09,0,0,0-7.26,13.67,29.94,29.94,0,0,0,7.55,27.05c.28.29.57.59.88.88l.3.29a30.06,30.06,0,0,0,5.27,4c-.11.42-.21.84-.31,1.27a59.2,59.2,0,0,0-1.46,10.34c0,.63-.06,1.26-.07,1.89s0,1.45,0,2.17a44.27,44.27,0,0,0,13.74,3.21l1.36.07c0-.47-.09-.92-.1-1.4-.09-1.19-.11-2.41-.08-3.62a44.09,44.09,0,0,1,1.26-9.7,29.81,29.81,0,0,0,9.06-1.08,29.51,29.51,0,0,0,8.66-4.08l-.47.79a29,29,0,0,0-3.12,8.08,29.35,29.35,0,0,0-.57,9.11,44.31,44.31,0,0,1-14.35,1.9h-.28c0,.1,0,.19,0,.28a44.47,44.47,0,0,0,4.08,14.63l.95-.05c.62,0,1.23-.08,1.84-.13a58.46,58.46,0,0,0,11.51-2.18l1.25-.38a30.19,30.19,0,0,0,4,4.75l.3.29c.21.19.4.38.62.56a29.91,29.91,0,0,0,28,6.57,29,29,0,0,0,13.24-8l-10.84-10.25A14.9,14.9,0,0,1,691,419.62m-10.48-50.93A44.14,44.14,0,0,1,697.31,364c1.2-.1,2.41-.14,3.61-.12.48,0,.94,0,1.4,0a1.27,1.27,0,0,1,0,.28,43.89,43.89,0,0,1,.17,4.73,44.34,44.34,0,0,1-3.74,17Z" transform="translate(-427.34 -195.5)"/><circle class="b1f2cfe8-c8ab-4123-86cb-346c6b12a6ad" cx="398.66" cy="51" r="44.72"/><path class="a5d98763-6718-4073-975e-b97101132954" d="M848.87,242.57a10.66,10.66,0,0,1-11.32,1.34l-1.78-2.17,6.88-7.12a39.56,39.56,0,0,0-6.39-5.16c-.54-.35-1.07-.68-1.62-1h0a39.49,39.49,0,0,0-9.2-3.91l-.85-.23a39.38,39.38,0,0,0-7.78-1.21c-.42,0-.83,0-1.24,0h-.65c-1.1,0-2.21,0-3.32.11a40,40,0,0,0-7.67,1.33l-.15,0c-.07.27-.14.53-.2.79a40,40,0,0,0-1.11,7c-.07,1.1-.1,2.21-.08,3.32,0,.49,0,1,0,1.47s.05.84.09,1.26a39.74,39.74,0,0,0,1.21,6.93c.07.28.15.57.23.85a39.92,39.92,0,0,0,4,9.17h0a39.42,39.42,0,0,0,3,4.42,40.86,40.86,0,0,0,3.17,3.54l7.07-7.13c.69.68,1.41,1.32,2.14,1.93a9.3,9.3,0,0,1,.74,1.71,10,10,0,0,1-2,9.66l-1.31,1.27a10,10,0,0,1-13.37-.69l-7.07,7.13a19.41,19.41,0,0,0,9.08,5.11,20.13,20.13,0,0,0,18.32-4.65l.61-.57.19-.2a20.72,20.72,0,0,0,2.78-3.48l.84.22a39.91,39.91,0,0,0,6.94,1.16c.42,0,.84.06,1.27.07s1,0,1.46,0a29.82,29.82,0,0,0,2.38-9.19c0-.31.05-.61.07-.92-.32,0-.62,0-.94,0-.81,0-1.63,0-2.44,0a29.92,29.92,0,0,1-6.51-1,20,20,0,0,0-.58-6.11,19.63,19.63,0,0,0-2.61-5.9c.17.12.35.23.53.34a19.8,19.8,0,0,0,11.51,2.76,29.6,29.6,0,0,1,1.05,6.49,28.29,28.29,0,0,1,0,3.19v.18h.18a29.84,29.84,0,0,0,9.91-2.51c0-.22,0-.43,0-.64,0-.42,0-.83-.07-1.24a38.65,38.65,0,0,0-1.28-7.78c-.07-.28-.15-.57-.23-.85a20.9,20.9,0,0,0,3.26-2.6l.2-.2.38-.4a20.16,20.16,0,0,0,4.88-18.77,19.57,19.57,0,0,0-5.17-9l-7.08,7.13a10,10,0,0,1,.44,13.8m-34.44,6.22a29.88,29.88,0,0,1-2.88-11.36c0-.81-.05-1.62,0-2.43,0-.32,0-.63,0-.94h.18a30.86,30.86,0,0,1,3.19,0,30,30,0,0,1,11.39,2.79Z" transform="translate(-427.34 -195.5)"/><g class="b3ba1424-9e0d-4ce2-a190-ba10628fd4e4"><path class="a5d98763-6718-4073-975e-b97101132954" d="M472,547.25a8.19,8.19,0,0,1-5-1.44,4.48,4.48,0,0,1-2-3.8,16.49,16.49,0,0,1,.65-3.76,17.05,17.05,0,0,0,.65-3.85q0-3.48-3.68-3.72V529.2a3.87,3.87,0,0,0,2.71-1.22,4,4,0,0,0,1-2.81,13.26,13.26,0,0,0-.65-3.4,12.65,12.65,0,0,1-.65-3.28,4.27,4.27,0,0,1,2-3.64,8.14,8.14,0,0,1,4.82-1.39h2.61v2.34h-3.08q-2.88,0-2.88,3.24A10.32,10.32,0,0,0,469,522a10.34,10.34,0,0,1,.55,2.87q0,2.77-4,5.06a7.66,7.66,0,0,1,2.9,2,3.73,3.73,0,0,1,1.05,2.43,12.78,12.78,0,0,1-.55,3.16,13.11,13.11,0,0,0-.55,3.32c0,2.68,1.54,4,4.62,4h1.34v2.46Z" transform="translate(-427.34 -195.5)"/></g><g class="b3ba1424-9e0d-4ce2-a190-ba10628fd4e4"><path class="a5d98763-6718-4073-975e-b97101132954" d="M474.41,516.65h.84v4.23a1.26,1.26,0,0,0,.36.93,1.3,1.3,0,0,0,.95.37,1.34,1.34,0,0,0,1-.36,1.29,1.29,0,0,0,.35-1v-4.21h.85V521a1.87,1.87,0,0,1-.59,1.46,2.69,2.69,0,0,1-3.19,0,1.92,1.92,0,0,1-.56-1.48Z" transform="translate(-427.34 -195.5)"/><path class="a5d98763-6718-4073-975e-b97101132954" d="M479.74,522.55l.3-.78a2.16,2.16,0,0,0,.59.29,2,2,0,0,0,.63.12,1.16,1.16,0,0,0,.8-.27.89.89,0,0,0,.3-.69,1.09,1.09,0,0,0-.17-.58,2,2,0,0,0-.84-.59l-.5-.23a2,2,0,0,1-.88-.7,1.77,1.77,0,0,1-.25-1,1.49,1.49,0,0,1,.49-1.15,1.77,1.77,0,0,1,1.26-.46,2.22,2.22,0,0,1,1.42.34l-.25.73a1.76,1.76,0,0,0-.51-.23,2,2,0,0,0-.64-.12.89.89,0,0,0-.68.25.85.85,0,0,0-.25.62,1,1,0,0,0,.09.43.9.9,0,0,0,.25.33,3.34,3.34,0,0,0,.65.37l.5.24a2.07,2.07,0,0,1,.89.71,2,2,0,0,1,.26,1.06,1.52,1.52,0,0,1-.56,1.18,2.24,2.24,0,0,1-1.5.49A2.43,2.43,0,0,1,479.74,522.55Z" transform="translate(-427.34 -195.5)"/><path class="a5d98763-6718-4073-975e-b97101132954" d="M487.6,522.83,486,520.18c-.19,0-.49,0-.89,0v2.7h-.85v-6.18l.66,0,.89,0q2.22,0,2.22,1.77a1.72,1.72,0,0,1-.35,1,1.53,1.53,0,0,1-.86.58l1.8,2.84Zm-2.54-5.42v2a4,4,0,0,0,.59,0,1.88,1.88,0,0,0,1.1-.25,1,1,0,0,0,.35-.87.84.84,0,0,0-.37-.75,2.37,2.37,0,0,0-1.18-.22A4.48,4.48,0,0,0,485.06,517.41Z" transform="translate(-427.34 -195.5)"/><path class="a5d98763-6718-4073-975e-b97101132954" d="M493.85,522.83l-.73-4-1.35,4h-.21l-1.39-4-.72,4h-.8l1.16-6.18h.38l1.47,4.51,1.36-4.51h.38l1.25,6.18Z" transform="translate(-427.34 -195.5)"/><path class="a5d98763-6718-4073-975e-b97101132954" d="M500.08,522.91h-.27l-1.47-4.26L497,522.91h-.27l-1.95-6.26h.88l1.24,4.31,1.36-4.31h.29l1.35,4.31,1.26-4.31H502Z" transform="translate(-427.34 -195.5)"/></g><g class="b3ba1424-9e0d-4ce2-a190-ba10628fd4e4"><path class="a5d98763-6718-4073-975e-b97101132954" d="M490,547.19l-1.48-4.52h-8l-1.58,4.52h-3.28l8.71-21.75h.78l8.09,21.75Zm-5.36-16.13-3.32,9.45h6.37Z" transform="translate(-427.34 -195.5)"/><path class="a5d98763-6718-4073-975e-b97101132954" d="M498.4,538.93v8.26h-2.93V525.73q3.33-.15,4-.15,9.35,0,9.34,6.26,0,7.24-8.26,7.24C500.24,539.08,499.52,539,498.4,538.93Zm0-10.56v7.92l2,.15c3.64,0,5.45-1.43,5.45-4.29,0-2.62-1.93-3.93-5.81-3.93A11.66,11.66,0,0,0,498.4,528.37Z" transform="translate(-427.34 -195.5)"/><path class="a5d98763-6718-4073-975e-b97101132954" d="M512.71,547.19V525.73h2.93v21.46Z" transform="translate(-427.34 -195.5)"/></g><g class="b3ba1424-9e0d-4ce2-a190-ba10628fd4e4"><path class="a5d98763-6718-4073-975e-b97101132954" d="M516.33,547.26v-2.47h1.34q4.62,0,4.62-4a13.19,13.19,0,0,0-.56-3.33,13.19,13.19,0,0,1-.55-3.16,3.7,3.7,0,0,1,1.06-2.43,7.57,7.57,0,0,1,2.9-2q-4-2.29-4-5.07a10.6,10.6,0,0,1,.55-2.86,10.51,10.51,0,0,0,.56-2.94c0-2.16-1-3.23-2.88-3.23h-3.08v-2.34h2.6a8.13,8.13,0,0,1,4.83,1.39,4.28,4.28,0,0,1,2,3.64,13.13,13.13,0,0,1-.65,3.27,12.89,12.89,0,0,0-.65,3.41,4.05,4.05,0,0,0,1,2.8,3.89,3.89,0,0,0,2.71,1.22v1.48q-3.68.24-3.67,3.73a16.25,16.25,0,0,0,.65,3.8,16.79,16.79,0,0,1,.65,3.81,4.51,4.51,0,0,1-2,3.8,8.21,8.21,0,0,1-5,1.44Z" transform="translate(-427.34 -195.5)"/></g><path class="b1f2cfe8-c8ab-4123-86cb-346c6b12a6ad" d="M453.94,208.6q0,6.61-3.89,9.76T438.3,221.5h-5.53v18.27h-5.43V195.5h11.08q7.72,0,11.63,3.26T453.94,208.6Zm-21.17,8.19h5.38q5.28,0,7.74-2t2.46-6.24q0-4.14-2.46-6.22t-7.68-2.08h-5.44Z" transform="translate(-427.34 -195.5)"/><path class="b1f2cfe8-c8ab-4123-86cb-346c6b12a6ad" d="M481.51,222.07c0,.42,0,1.38-.09,2.87h-18.9q.21,11.44,7.18,11.44a6,6,0,0,0,4.49-1.82,8.25,8.25,0,0,0,2.07-5.33l5,.45a13.92,13.92,0,0,1-1.68,5.56,10,10,0,0,1-3.86,3.86,12,12,0,0,1-6,1.42q-6.24,0-9.31-4.33t-3.07-12.25q0-8.08,3.11-12.53t9.24-4.44a11.23,11.23,0,0,1,8.52,3.5Q481.51,214,481.51,222.07Zm-19-1.27h14c0-3.16-.58-5.56-1.75-7.22a6.08,6.08,0,0,0-5.32-2.47,5.74,5.74,0,0,0-5.1,2.5A13.63,13.63,0,0,0,462.55,220.8Z" transform="translate(-427.34 -195.5)"/><path class="b1f2cfe8-c8ab-4123-86cb-346c6b12a6ad" d="M486.47,223.37a22.82,22.82,0,0,1,1.45-8.41,12.86,12.86,0,0,1,4.36-5.85,13.09,13.09,0,0,1,14.25-.06,12.56,12.56,0,0,1,4.32,5.83,24.37,24.37,0,0,1,1.44,8.76q0,7.89-3.25,12.38t-9.62,4.5q-6.59,0-9.77-4.51T486.47,223.37Zm12.83-12.2a6.3,6.3,0,0,0-4,1.34,8.81,8.81,0,0,0-2.7,4.09,20.76,20.76,0,0,0-1,6.86c0,4.13.66,7.3,2,9.53a6.26,6.26,0,0,0,5.69,3.33,6.56,6.56,0,0,0,5.65-3q2.11-3,2.11-10.13c0-3.91-.69-6.88-2.07-8.93A6.53,6.53,0,0,0,499.3,211.17Z" transform="translate(-427.34 -195.5)"/><path class="b1f2cfe8-c8ab-4123-86cb-346c6b12a6ad" d="M543.21,223.22q0,9.06-3,13.18a9.71,9.71,0,0,1-8.4,4.12,9,9,0,0,1-8-4.2V252h-5.1V207.7h4.53v4a9.75,9.75,0,0,1,8.66-4.77,10,10,0,0,1,6.09,1.86,11.54,11.54,0,0,1,3.86,5.49A25.73,25.73,0,0,1,543.21,223.22Zm-19.75,0q0,6.8,2,9.95a6.38,6.38,0,0,0,5.62,3.15,5.72,5.72,0,0,0,5.06-2.83c1.22-1.9,1.82-5.18,1.82-9.85q0-12.44-7-12.44a6.35,6.35,0,0,0-5.51,3Q523.46,217.15,523.46,223.19Z" transform="translate(-427.34 -195.5)"/><path class="b1f2cfe8-c8ab-4123-86cb-346c6b12a6ad" d="M549.64,239.77V195.5h5.11v44.27Z" transform="translate(-427.34 -195.5)"/><path class="b1f2cfe8-c8ab-4123-86cb-346c6b12a6ad" d="M585.37,222.07c0,.42,0,1.38-.09,2.87H566.37q.21,11.44,7.19,11.44a6,6,0,0,0,4.48-1.82,8.25,8.25,0,0,0,2.07-5.33l5,.45a14.24,14.24,0,0,1-1.68,5.56,10,10,0,0,1-3.87,3.86,11.94,11.94,0,0,1-6,1.42q-6.25,0-9.32-4.33t-3.06-12.25q0-8.08,3.11-12.53t9.24-4.44a11.22,11.22,0,0,1,8.51,3.5Q585.37,214,585.37,222.07Zm-19-1.27h14c0-3.16-.58-5.56-1.75-7.22a6.07,6.07,0,0,0-5.31-2.47,5.75,5.75,0,0,0-5.11,2.5A13.73,13.73,0,0,0,566.4,220.8Z" transform="translate(-427.34 -195.5)"/><path class="b1f2cfe8-c8ab-4123-86cb-346c6b12a6ad" d="M601.61,211.17a7.38,7.38,0,0,0-3.15.6,4.35,4.35,0,0,0-1.89,1.57,3.85,3.85,0,0,0-.6,2.06,3.58,3.58,0,0,0,.57,2,6.2,6.2,0,0,0,2.16,1.76,35.75,35.75,0,0,0,4.63,2,29.88,29.88,0,0,1,6.2,3,8.13,8.13,0,0,1,2.85,3,8.68,8.68,0,0,1,.74,3.73,9.37,9.37,0,0,1-1.3,4.92,9,9,0,0,1-3.82,3.43,13.4,13.4,0,0,1-6,1.25q-9.94,0-12.14-9.57l4.92-.76a7.27,7.27,0,0,0,2.67,4.64,7.56,7.56,0,0,0,4.67,1.55,7.21,7.21,0,0,0,3.17-.66,5,5,0,0,0,2.08-1.8,4.53,4.53,0,0,0,.73-2.49,3.65,3.65,0,0,0-.88-2.52,7.58,7.58,0,0,0-2.55-1.74q-1.68-.75-5.6-2.2a20.73,20.73,0,0,1-5-2.52,8,8,0,0,1-2.56-3,8.75,8.75,0,0,1-.76-3.77,7.75,7.75,0,0,1,1.35-4.44,9,9,0,0,1,3.79-3.14,13.06,13.06,0,0,1,5.64-1.15q9.8,0,11,8.79l-5.1.45C606.84,212.85,604.89,211.17,601.61,211.17Z" transform="translate(-427.34 -195.5)"/><path class="b1f2cfe8-c8ab-4123-86cb-346c6b12a6ad" d="M452.61,281q0,6.89-5.95,9.72,7.5,2.24,7.49,10.69,0,5.83-3.36,9.2t-11,3.36h-12.5V269.71h12q6.68,0,10,3A10.63,10.63,0,0,1,452.61,281Zm-19.84,7.67h6.4c2.9,0,5-.63,6.19-1.89a7.36,7.36,0,0,0,1.85-5.36,8.06,8.06,0,0,0-.79-3.7,5.34,5.34,0,0,0-2.81-2.39,14.6,14.6,0,0,0-5.55-.86h-5.29Zm0,20.53h6.1a18.13,18.13,0,0,0,5.32-.66,6,6,0,0,0,3.29-2.42,8.88,8.88,0,0,0,1.18-4.95,8.23,8.23,0,0,0-1.11-4.56,6.05,6.05,0,0,0-3.32-2.43,18.38,18.38,0,0,0-5.75-.74h-5.71Z" transform="translate(-427.34 -195.5)"/><path class="b1f2cfe8-c8ab-4123-86cb-346c6b12a6ad" d="M480.79,291.36v15.31a18.33,18.33,0,0,0,.41,4,10.85,10.85,0,0,0,1.28,3.33h-5.29a15.67,15.67,0,0,1-1.05-3.44,10.14,10.14,0,0,1-8.43,4.23,7.85,7.85,0,0,1-6.13-2.4,11,11,0,0,1-1.16-11.18,8.31,8.31,0,0,1,3.12-3.11,21.81,21.81,0,0,1,5.59-2.13,47.19,47.19,0,0,0,6.55-2v-1.9c0-2.3-.41-4-1.23-5a4.43,4.43,0,0,0-3.72-1.59c-3.44,0-5.26,2-5.46,5.95l-5-.39q.33-4.89,2.93-7.35t7.73-2.46q4.86,0,7.37,2.55T480.79,291.36Zm-11.6,8.85a8.69,8.69,0,0,0-3.7,2,4.86,4.86,0,0,0-1.16,3.46,5.32,5.32,0,0,0,1.18,3.68,4.33,4.33,0,0,0,3.44,1.33,5.85,5.85,0,0,0,3.56-1.12,7,7,0,0,0,2.36-3,10.41,10.41,0,0,0,.81-4.15v-4.29C474.36,298.59,472.19,299.29,469.19,300.21Z" transform="translate(-427.34 -195.5)"/><path class="b1f2cfe8-c8ab-4123-86cb-346c6b12a6ad" d="M511.8,292.57V314h-5.1V292.63a12.43,12.43,0,0,0-.58-4.26,3.86,3.86,0,0,0-1.78-2.18,6.73,6.73,0,0,0-3.23-.65,6.94,6.94,0,0,0-6.67,4.28,11.34,11.34,0,0,0-.91,4.71V314h-5.1V281.91H493v4.65c2.61-3.58,5.86-5.37,9.72-5.37a8.6,8.6,0,0,1,6.75,2.61Q511.8,286.41,511.8,292.57Z" transform="translate(-427.34 -195.5)"/><path class="b1f2cfe8-c8ab-4123-86cb-346c6b12a6ad" d="M535.69,281.91h6.16L531,293.54,542.51,314h-5.7l-9.09-16.79-3.2,3.23V314h-5.11V269.71h5.11v24.52Z" transform="translate(-427.34 -195.5)"/><path class="b1f2cfe8-c8ab-4123-86cb-346c6b12a6ad" d="M460.55,388.2l.58-39.05-12,39.05h-5l-11.87-38.81.3,38.81h-5.22V343.93h8.09l11.23,37,11.24-37h8V388.2Z" transform="translate(-427.34 -195.5)"/><path class="b1f2cfe8-c8ab-4123-86cb-346c6b12a6ad" d="M497.52,370.5c0,.43,0,1.38-.09,2.87H478.52q.21,11.44,7.19,11.45a6,6,0,0,0,4.48-1.83,8.23,8.23,0,0,0,2.07-5.33l5,.45a14,14,0,0,1-1.68,5.56,10.06,10.06,0,0,1-3.87,3.87,12,12,0,0,1-6,1.42q-6.25,0-9.32-4.34t-3.06-12.24q0-8.1,3.11-12.54t9.24-4.44a11.23,11.23,0,0,1,8.52,3.51Q497.52,362.41,497.52,370.5Zm-19-1.27h14q0-4.74-1.76-7.21a6.07,6.07,0,0,0-5.31-2.48,5.73,5.73,0,0,0-5.1,2.51A13.56,13.56,0,0,0,478.55,369.23Z" transform="translate(-427.34 -195.5)"/><path class="b1f2cfe8-c8ab-4123-86cb-346c6b12a6ad" d="M544.11,366.37V388.2H539V367.63c0-2.75-.44-4.76-1.31-6a4.47,4.47,0,0,0-3.91-1.88,5.79,5.79,0,0,0-5.45,3,16.59,16.59,0,0,0-1.71,8.16V388.2h-5.1V367a10.35,10.35,0,0,0-1.17-5.15,4.31,4.31,0,0,0-4.12-2.07,6,6,0,0,0-5.57,3q-1.8,3-1.8,8.32V388.2h-5.1V356.13h4.68v4.8q3.72-5.52,9.09-5.53a8.58,8.58,0,0,1,5,1.38,8.91,8.91,0,0,1,3.17,4.15q3.78-5.52,9.52-5.53a8.37,8.37,0,0,1,6.55,2.66Q544.12,360.72,544.11,366.37Z" transform="translate(-427.34 -195.5)"/><path class="b1f2cfe8-c8ab-4123-86cb-346c6b12a6ad" d="M574.62,370.5c0,.43,0,1.38-.1,2.87h-18.9q.21,11.44,7.19,11.45a6,6,0,0,0,4.48-1.83,8.23,8.23,0,0,0,2.07-5.33l5,.45a14,14,0,0,1-1.67,5.56,10.13,10.13,0,0,1-3.87,3.87,12,12,0,0,1-6,1.42q-6.25,0-9.32-4.34t-3.06-12.24q0-8.1,3.11-12.54t9.24-4.44a11.19,11.19,0,0,1,8.51,3.51Q574.62,362.41,574.62,370.5Zm-19-1.27h14q0-4.74-1.75-7.21a6.08,6.08,0,0,0-5.31-2.48,5.76,5.76,0,0,0-5.11,2.51A13.66,13.66,0,0,0,555.65,369.23Z" transform="translate(-427.34 -195.5)"/><path class="b1f2cfe8-c8ab-4123-86cb-346c6b12a6ad" d="M590.86,359.6a7.22,7.22,0,0,0-3.15.61,4.22,4.22,0,0,0-1.89,1.57,3.8,3.8,0,0,0-.61,2.05,3.64,3.64,0,0,0,.58,2,6.19,6.19,0,0,0,2.16,1.75,36.31,36.31,0,0,0,4.63,2,28.77,28.77,0,0,1,6.19,3,8.15,8.15,0,0,1,2.86,3,8.68,8.68,0,0,1,.74,3.73,9.47,9.47,0,0,1-1.3,4.92,9,9,0,0,1-3.82,3.43,13.28,13.28,0,0,1-6,1.26q-9.93,0-12.14-9.58l4.93-.75a7.24,7.24,0,0,0,2.67,4.63,7.55,7.55,0,0,0,4.67,1.56,7.08,7.08,0,0,0,3.17-.67,5,5,0,0,0,2.08-1.79,4.58,4.58,0,0,0,.72-2.5,3.68,3.68,0,0,0-.87-2.52,7.53,7.53,0,0,0-2.55-1.73c-1.12-.51-3-1.24-5.6-2.21a20,20,0,0,1-5-2.52,7.84,7.84,0,0,1-2.56-3,8.83,8.83,0,0,1-.76-3.78,7.81,7.81,0,0,1,1.34-4.44,9.16,9.16,0,0,1,3.79-3.14,13.29,13.29,0,0,1,5.65-1.15q9.78,0,11,8.79l-5.1.45C596.09,361.28,594.14,359.6,590.86,359.6Z" transform="translate(-427.34 -195.5)"/><path class="b1f2cfe8-c8ab-4123-86cb-346c6b12a6ad" d="M702.83,555V507.83h8.95V555Z" transform="translate(-427.34 -195.5)"/><path class="b1f2cfe8-c8ab-4123-86cb-346c6b12a6ad" d="M738.69,555v-4.15q-3.42,5-8.15,5a9.26,9.26,0,0,1-8.28-4.59q-2.93-4.59-2.92-13.7a29.52,29.52,0,0,1,1.4-9.8,12.24,12.24,0,0,1,3.87-5.79,9.14,9.14,0,0,1,5.74-1.88q4.6,0,7.73,4.57V507.83h8.66V555ZM728,536.8a46.63,46.63,0,0,0,.31,5.91,8.78,8.78,0,0,0,1.43,4,4.11,4.11,0,0,0,7.16-1.19q1.19-2.81,1.18-8.47a18.26,18.26,0,0,0-.66-5.24,7.63,7.63,0,0,0-1.82-3.32,3.69,3.69,0,0,0-2.64-1.13,4,4,0,0,0-3.67,2.29Q728,531.94,728,536.8Z" transform="translate(-427.34 -195.5)"/><path class="b1f2cfe8-c8ab-4123-86cb-346c6b12a6ad" d="M781.53,538.48v2.19H762a12.89,12.89,0,0,0,.67,4.34,6.67,6.67,0,0,0,1.93,3,4.36,4.36,0,0,0,2.87,1,4.53,4.53,0,0,0,3.31-1.28,5.5,5.5,0,0,0,1.58-3.38l8.5,1a12.23,12.23,0,0,1-2.09,5.3,11.63,11.63,0,0,1-4.54,3.8,15,15,0,0,1-6.66,1.4q-7.22,0-10.63-4.56t-3.41-12.53c0-6.23,1.23-10.89,3.7-14s5.91-4.66,10.34-4.66a12.39,12.39,0,0,1,8.12,2.54,14,14,0,0,1,4.46,6.68A29.51,29.51,0,0,1,781.53,538.48ZM762.12,535h10.63a14,14,0,0,0-1.55-6.07,4.12,4.12,0,0,0-3.77-2Q762.54,526.92,762.12,535Z" transform="translate(-427.34 -195.5)"/><path class="b1f2cfe8-c8ab-4123-86cb-346c6b12a6ad" d="M813.82,530.85V555h-8.66V532.07a6.15,6.15,0,0,0-.85-3.76,3.29,3.29,0,0,0-2.72-1.07,3.79,3.79,0,0,0-2.93,1.21,7.63,7.63,0,0,0-1.58,3.7,35.84,35.84,0,0,0-.48,6.52V555h-8.66V520.84h8v4.83q3.15-5.61,9-5.6,4.47,0,6.68,2.76C813.08,524.68,813.82,527.35,813.82,530.85Z" transform="translate(-427.34 -195.5)"/><path class="b1f2cfe8-c8ab-4123-86cb-346c6b12a6ad" d="M835.94,520.84v6.89h-5.15V544.3A13.2,13.2,0,0,0,831,547a2.32,2.32,0,0,0,.74,1.35,2.51,2.51,0,0,0,1.57.42,11.56,11.56,0,0,0,2.64-.45l.57,6.37a18.46,18.46,0,0,1-6,1.16c-3,0-5.1-.79-6.41-2.37s-2-3.9-2-7V527.73h-3.9v-6.89h3.9v-6.67l8.66-4.92v11.59Z" transform="translate(-427.34 -195.5)"/><path class="b1f2cfe8-c8ab-4123-86cb-346c6b12a6ad" d="M841.08,516v-8.21h8.66V516Zm0,39V520.84h8.66V555Z" transform="translate(-427.34 -195.5)"/><path class="b1f2cfe8-c8ab-4123-86cb-346c6b12a6ad" d="M872.18,520.84v6.89H867V544.3a13.07,13.07,0,0,0,.21,2.68,2.32,2.32,0,0,0,.74,1.35,2.46,2.46,0,0,0,1.56.42,11.56,11.56,0,0,0,2.64-.45l.58,6.37a18.51,18.51,0,0,1-6,1.16q-4.44,0-6.41-2.37c-1.3-1.57-2-3.9-2-7V527.73h-3.89v-6.89h3.89v-6.67l8.66-4.92v11.59Z" transform="translate(-427.34 -195.5)"/><path class="b1f2cfe8-c8ab-4123-86cb-346c6b12a6ad" d="M880.29,568.9a16,16,0,0,1-6.82-1.29l1.87-6.31a8.1,8.1,0,0,0,3.38.87,4.29,4.29,0,0,0,3-1.14,8,8,0,0,0,2-3.4l.83-2.61-10.36-34.18h8.72l6,25.24L895,520.84h8.6L893,556.12a41,41,0,0,1-2.69,7.1,10.68,10.68,0,0,1-3.75,4.15A11.53,11.53,0,0,1,880.29,568.9Z" transform="translate(-427.34 -195.5)"/><path class="b1f2cfe8-c8ab-4123-86cb-346c6b12a6ad" d="M565,600.88h3.49v24.73h-2.14V603.29h-.1l-8.15,22.32h-2l-8-22.32H548v22.32h-2.14V600.88h3.49l7.78,21.54Z" transform="translate(-427.34 -195.5)"/><path class="b1f2cfe8-c8ab-4123-86cb-346c6b12a6ad" d="M586.39,620.38a4.75,4.75,0,0,1-1.65,3.83,7.63,7.63,0,0,1-5,1.4h-5.92v-17.9H576v7.37h3.83a9.78,9.78,0,0,1,4,.66,4.09,4.09,0,0,1,2,1.82A6.19,6.19,0,0,1,586.39,620.38Zm-6.61,3.46a4.94,4.94,0,0,0,3.35-.91,3.76,3.76,0,0,0,0-5.19,5.35,5.35,0,0,0-3.45-.88H576v7Zm12,1.77h-2.18v-17.9h2.18Z" transform="translate(-427.34 -195.5)"/><path class="b1f2cfe8-c8ab-4123-86cb-346c6b12a6ad" d="M604.46,616.67a11.67,11.67,0,0,1,1-5.11,7.13,7.13,0,0,1,2.81-3.18,8.8,8.8,0,0,1,8.41,0,7.12,7.12,0,0,1,2.82,3.17,11.73,11.73,0,0,1,1,5.09,12,12,0,0,1-1,5.1,7.26,7.26,0,0,1-2.81,3.21,8.13,8.13,0,0,1-4.24,1.08,8,8,0,0,1-4.19-1.08,7.14,7.14,0,0,1-2.82-3.2A11.8,11.8,0,0,1,604.46,616.67Zm8-7.52a5.31,5.31,0,0,0-3,.84,5.64,5.64,0,0,0-2,2.54,12.11,12.11,0,0,0,0,8.31,5.57,5.57,0,0,0,2,2.52,5.38,5.38,0,0,0,3,.83,5.45,5.45,0,0,0,3-.83,5.58,5.58,0,0,0,2-2.53,10.55,10.55,0,0,0,.74-4.19,10.16,10.16,0,0,0-.73-4.08,5.7,5.7,0,0,0-2-2.54A5.43,5.43,0,0,0,612.43,609.15Z" transform="translate(-427.34 -195.5)"/><path class="b1f2cfe8-c8ab-4123-86cb-346c6b12a6ad" d="M631.39,607.76a8.3,8.3,0,0,1,4.23,1,7,7,0,0,1,2.82,3.1,11.16,11.16,0,0,1,1,5,11.4,11.4,0,0,1-1,5,7.13,7.13,0,0,1-2.81,3.12,8.25,8.25,0,0,1-4.25,1.06,7.69,7.69,0,0,1-4.53-1.24,7.37,7.37,0,0,1-2.63-3.85,22,22,0,0,1-.85-6.66q0-6.84,2.09-10.12a7.05,7.05,0,0,1,6.36-3.28h4.29a.72.72,0,0,0,.5-.16.59.59,0,0,0,.19-.41h1.69a2.49,2.49,0,0,1-.61,1.78,2.38,2.38,0,0,1-1.79.63h-4.32a6.23,6.23,0,0,0-3.39.86,5.48,5.48,0,0,0-2.08,2.65,14.76,14.76,0,0,0-.92,4.62l.22.07a6.24,6.24,0,0,1,2.51-2.39A7.16,7.16,0,0,1,631.39,607.76Zm0,1.84a5.82,5.82,0,0,0-2.93.76,5.42,5.42,0,0,0-2,2.14,6.47,6.47,0,0,0-.75,3.16c0,3,.51,5.1,1.54,6.48a5,5,0,0,0,4.22,2.05,5.64,5.64,0,0,0,3-.81,5.4,5.4,0,0,0,2.05-2.45,10,10,0,0,0,.74-4.06,9.62,9.62,0,0,0-.74-4,5.31,5.31,0,0,0-5.1-3.31Z" transform="translate(-427.34 -195.5)"/><path class="b1f2cfe8-c8ab-4123-86cb-346c6b12a6ad" d="M659.7,620.38a4.75,4.75,0,0,1-1.65,3.83,7.63,7.63,0,0,1-5,1.4h-6.26V609.55h-5.31v-1.84h7.49v7.37h4.16a9.78,9.78,0,0,1,4,.66,4,4,0,0,1,2,1.82A6.19,6.19,0,0,1,659.7,620.38Zm-6.61,3.46a4.94,4.94,0,0,0,3.35-.91,3.76,3.76,0,0,0,0-5.19,5.35,5.35,0,0,0-3.45-.88h-4v7Z" transform="translate(-427.34 -195.5)"/><path class="b1f2cfe8-c8ab-4123-86cb-346c6b12a6ad" d="M670.38,624.19a5.15,5.15,0,0,0,3.13-1,5.35,5.35,0,0,0,1.91-2.69l2.14.34a7.38,7.38,0,0,1-2.76,3.84,8.62,8.62,0,0,1-8.85.19,7.28,7.28,0,0,1-2.79-3.22,11.41,11.41,0,0,1-1-4.87,11.93,11.93,0,0,1,1-5.06,7.37,7.37,0,0,1,2.79-3.29,7.66,7.66,0,0,1,4.23-1.15,6.81,6.81,0,0,1,6.95,4.72,14.79,14.79,0,0,1,.79,5.05H664.42a9.82,9.82,0,0,0,.82,3.82,5.41,5.41,0,0,0,5.14,3.29Zm-.22-15.06a5.23,5.23,0,0,0-2.77.73,5.32,5.32,0,0,0-2,2.1,8.42,8.42,0,0,0-.94,3.29h11.2a7.85,7.85,0,0,0-1.7-4.58A5,5,0,0,0,670.16,609.13Z" transform="translate(-427.34 -195.5)"/><path class="b1f2cfe8-c8ab-4123-86cb-346c6b12a6ad" d="M684.6,607.71h10.62v16.06h2.33v7.75h-2.07v-5.91H681.36v5.91h-2.08v-7.75h1.61a23.12,23.12,0,0,0,2.35-5.07,26.63,26.63,0,0,0,1.09-5.17A56.66,56.66,0,0,0,684.6,607.71Zm2.14,1.84a42.12,42.12,0,0,1-.82,7.59,21.33,21.33,0,0,1-2.55,6.63h9.68V609.55Z" transform="translate(-427.34 -195.5)"/><path class="b1f2cfe8-c8ab-4123-86cb-346c6b12a6ad" d="M702.71,622.22l9.3-14.51h2.39v17.9h-2.17V611.1l-9.3,14.51h-2.39v-17.9h2.17Z" transform="translate(-427.34 -195.5)"/><path class="b1f2cfe8-c8ab-4123-86cb-346c6b12a6ad" d="M721.27,615.49h9.51v-7.78H733v17.9h-2.18v-8.28h-9.51v8.28h-2.18v-17.9h2.18Z" transform="translate(-427.34 -195.5)"/><path class="b1f2cfe8-c8ab-4123-86cb-346c6b12a6ad" d="M747.47,625.61V617.9h-1.13a5.73,5.73,0,0,0-1.64.2,3.26,3.26,0,0,0-1.27.77A11.49,11.49,0,0,0,742,620.6l-3.56,5h-2.57l3.8-5.33a12.49,12.49,0,0,1,1.54-1.85,2.42,2.42,0,0,1,1.31-.7,5.91,5.91,0,0,1-4-1.38,4.66,4.66,0,0,1-1.41-3.58q0-5.06,6.51-5.06h6.09v17.9Zm-4-16.12a4.92,4.92,0,0,0-3.28.83,3.14,3.14,0,0,0-.93,2.45,3.62,3.62,0,0,0,.42,1.83,2.72,2.72,0,0,0,1.48,1.13,8.65,8.65,0,0,0,3,.4h3.34v-6.64Z" transform="translate(-427.34 -195.5)"/><path class="b1f2cfe8-c8ab-4123-86cb-346c6b12a6ad" d="M761.45,624.19a5.13,5.13,0,0,0,3.13-1,5.35,5.35,0,0,0,1.91-2.69l2.15.34a7.45,7.45,0,0,1-2.77,3.84,8.62,8.62,0,0,1-8.85.19,7.28,7.28,0,0,1-2.79-3.22,11.41,11.41,0,0,1-1-4.87,11.93,11.93,0,0,1,1-5.06,7.49,7.49,0,0,1,2.79-3.29,7.66,7.66,0,0,1,4.23-1.15,6.81,6.81,0,0,1,7,4.72,14.78,14.78,0,0,1,.8,5.05H755.5a9.65,9.65,0,0,0,.81,3.82,5.41,5.41,0,0,0,5.14,3.29Zm-.22-15.06a5.26,5.26,0,0,0-2.77.73,5.32,5.32,0,0,0-2,2.1,8.59,8.59,0,0,0-.94,3.29h11.2a7.85,7.85,0,0,0-1.7-4.58A4.93,4.93,0,0,0,761.23,609.13Z" transform="translate(-427.34 -195.5)"/><path class="b1f2cfe8-c8ab-4123-86cb-346c6b12a6ad" d="M781.07,622.54l5.56-14.83h2.94v17.9H787.5V610.68l-5.61,14.93h-1.65l-5.6-14.93v14.93h-2.07v-17.9h2.93Z" transform="translate(-427.34 -195.5)"/></svg>